# xmcd CD database file
#
# Track frame offsets:
#	150
#	13217
#	28230
#	40937
#	56537
#	67382
#	85285
#	100307
#	113197
#	126465
#	141520
#	163452
#	176400
#	196685
#
# Disc length: 2825 seconds
#
# Revision: 0
# Processed by: cddbd v1.4PL0 Copyright (c) Steve Scherf et al.
# Submitted via: CDex 1.50Beta7
#
DISCID=d60b070e
DTITLE=Benny Goodman - JAZZ 8
DYEAR=1900
DGENRE=Jazz
TTITLE0=Wolverine Blues
TTITLE1=Beale Street Blues
TTITLE2=After You've Gone
TTITLE3=My Melancholy Baby
TTITLE4=All Of Me
TTITLE5=Sing, Sing, Sing(With A Swing)
TTITLE6=Flying Home
TTITLE7=Just Like Taking Candy From A Baby
TTITLE8=Air Mail Special(Good Enough To Keep)
TTITLE9=Let's Fall In Love
TTITLE10=Don't Be That Way
TTITLE11=Bugle Call Rag
TTITLE12=Avalon
TTITLE13=King Porter Stomp
EXTD=
EXTT0=
EXTT1=
EXTT2=
EXTT3=
EXTT4=
EXTT5=
EXTT6=
EXTT7=
EXTT8=
EXTT9=
EXTT10=
EXTT11=
EXTT12=
EXTT13=
PLAYORDER=
